<mxfile host="app.diagrams.net" agent="Mozilla/5.0 (Macintosh; Intel Mac OS X 10_15_7) AppleWebKit/605.1.15 (KHTML, like Gecko) Version/17.6 Safari/605.1.15" version="24.7.16">
  <diagram name="第 1 页" id="F86pxBzs7jDIRsQRSrXJ">
    <mxGraphModel dx="739" dy="585" grid="1" gridSize="10" guides="1" tooltips="1" connect="1" arrows="1" fold="1" page="1" pageScale="1" pageWidth="827" pageHeight="1169" math="1" shadow="0">
      <root>
        <mxCell id="0" />
        <mxCell id="1" parent="0" />
        <mxCell id="Vv4uia_VUNC-QQ6TIXsC-5" value="" style="edgeStyle=orthogonalEdgeStyle;rounded=0;orthogonalLoop=1;jettySize=auto;html=1;fontFamily=Helvetica;fontSize=12;fontColor=default;entryX=0;entryY=0.5;entryDx=0;entryDy=0;" edge="1" parent="1" source="Vv4uia_VUNC-QQ6TIXsC-1" target="Vv4uia_VUNC-QQ6TIXsC-4">
          <mxGeometry relative="1" as="geometry">
            <Array as="points">
              <mxPoint x="160" y="315" />
              <mxPoint x="160" y="200" />
            </Array>
          </mxGeometry>
        </mxCell>
        <mxCell id="Vv4uia_VUNC-QQ6TIXsC-1" value="集合" style="rounded=0;whiteSpace=wrap;html=1;textDirection=vertical-lr;horizontal=1;verticalAlign=middle;fontSize=12;fontFamily=Helvetica;" vertex="1" parent="1">
          <mxGeometry x="80" y="260" width="30" height="110" as="geometry" />
        </mxCell>
        <mxCell id="Vv4uia_VUNC-QQ6TIXsC-7" value="" style="edgeStyle=orthogonalEdgeStyle;rounded=0;orthogonalLoop=1;jettySize=auto;html=1;fontFamily=Helvetica;fontSize=12;fontColor=default;" edge="1" parent="1" source="Vv4uia_VUNC-QQ6TIXsC-4" target="Vv4uia_VUNC-QQ6TIXsC-6">
          <mxGeometry relative="1" as="geometry">
            <Array as="points">
              <mxPoint x="330" y="200" />
              <mxPoint x="330" y="160" />
            </Array>
          </mxGeometry>
        </mxCell>
        <mxCell id="Vv4uia_VUNC-QQ6TIXsC-10" style="edgeStyle=orthogonalEdgeStyle;rounded=0;orthogonalLoop=1;jettySize=auto;html=1;fontFamily=Helvetica;fontSize=12;fontColor=default;" edge="1" parent="1" source="Vv4uia_VUNC-QQ6TIXsC-4" target="Vv4uia_VUNC-QQ6TIXsC-9">
          <mxGeometry relative="1" as="geometry">
            <Array as="points">
              <mxPoint x="330" y="200" />
              <mxPoint x="330" y="190" />
            </Array>
          </mxGeometry>
        </mxCell>
        <mxCell id="Vv4uia_VUNC-QQ6TIXsC-12" style="edgeStyle=orthogonalEdgeStyle;rounded=0;orthogonalLoop=1;jettySize=auto;html=1;entryX=0;entryY=0.5;entryDx=0;entryDy=0;fontFamily=Helvetica;fontSize=12;fontColor=default;" edge="1" parent="1" source="Vv4uia_VUNC-QQ6TIXsC-4" target="Vv4uia_VUNC-QQ6TIXsC-11">
          <mxGeometry relative="1" as="geometry">
            <Array as="points">
              <mxPoint x="330" y="200" />
              <mxPoint x="330" y="260" />
            </Array>
          </mxGeometry>
        </mxCell>
        <mxCell id="Vv4uia_VUNC-QQ6TIXsC-28" style="edgeStyle=orthogonalEdgeStyle;rounded=0;orthogonalLoop=1;jettySize=auto;html=1;entryX=0;entryY=0.5;entryDx=0;entryDy=0;fontFamily=Helvetica;fontSize=12;fontColor=default;" edge="1" parent="1" source="Vv4uia_VUNC-QQ6TIXsC-4" target="Vv4uia_VUNC-QQ6TIXsC-27">
          <mxGeometry relative="1" as="geometry">
            <Array as="points">
              <mxPoint x="330" y="200" />
              <mxPoint x="330" y="360" />
            </Array>
          </mxGeometry>
        </mxCell>
        <mxCell id="Vv4uia_VUNC-QQ6TIXsC-4" value="集合的概念" style="whiteSpace=wrap;html=1;rounded=0;gradientColor=none;strokeColor=none;fillColor=none;" vertex="1" parent="1">
          <mxGeometry x="210" y="190" width="70" height="20" as="geometry" />
        </mxCell>
        <mxCell id="Vv4uia_VUNC-QQ6TIXsC-6" value="元素：研究对象称为元素" style="whiteSpace=wrap;html=1;rounded=0;gradientColor=none;strokeColor=none;fillColor=none;align=center;verticalAlign=middle;fontFamily=Helvetica;fontSize=12;fontColor=default;" vertex="1" parent="1">
          <mxGeometry x="360" y="150" width="140" height="20" as="geometry" />
        </mxCell>
        <mxCell id="Vv4uia_VUNC-QQ6TIXsC-9" value="集合：将元素组成的总体称为集合" style="text;html=1;align=center;verticalAlign=middle;whiteSpace=wrap;rounded=0;fontFamily=Helvetica;fontSize=12;fontColor=default;" vertex="1" parent="1">
          <mxGeometry x="360" y="180" width="190" height="20" as="geometry" />
        </mxCell>
        <mxCell id="Vv4uia_VUNC-QQ6TIXsC-17" style="edgeStyle=orthogonalEdgeStyle;rounded=0;orthogonalLoop=1;jettySize=auto;html=1;entryX=0;entryY=0.5;entryDx=0;entryDy=0;fontFamily=Helvetica;fontSize=12;fontColor=default;" edge="1" parent="1" source="Vv4uia_VUNC-QQ6TIXsC-11" target="Vv4uia_VUNC-QQ6TIXsC-13">
          <mxGeometry relative="1" as="geometry" />
        </mxCell>
        <mxCell id="Vv4uia_VUNC-QQ6TIXsC-18" style="edgeStyle=orthogonalEdgeStyle;rounded=0;orthogonalLoop=1;jettySize=auto;html=1;entryX=0;entryY=0.5;entryDx=0;entryDy=0;fontFamily=Helvetica;fontSize=12;fontColor=default;" edge="1" parent="1" source="Vv4uia_VUNC-QQ6TIXsC-11" target="Vv4uia_VUNC-QQ6TIXsC-14">
          <mxGeometry relative="1" as="geometry" />
        </mxCell>
        <mxCell id="Vv4uia_VUNC-QQ6TIXsC-20" style="edgeStyle=orthogonalEdgeStyle;rounded=0;orthogonalLoop=1;jettySize=auto;html=1;entryX=0;entryY=0.5;entryDx=0;entryDy=0;fontFamily=Helvetica;fontSize=12;fontColor=default;" edge="1" parent="1" source="Vv4uia_VUNC-QQ6TIXsC-11" target="Vv4uia_VUNC-QQ6TIXsC-15">
          <mxGeometry relative="1" as="geometry" />
        </mxCell>
        <mxCell id="Vv4uia_VUNC-QQ6TIXsC-11" value="三要素" style="text;html=1;align=center;verticalAlign=middle;whiteSpace=wrap;rounded=0;fontFamily=Helvetica;fontSize=12;fontColor=default;" vertex="1" parent="1">
          <mxGeometry x="360" y="250" width="46" height="20" as="geometry" />
        </mxCell>
        <mxCell id="Vv4uia_VUNC-QQ6TIXsC-22" style="edgeStyle=orthogonalEdgeStyle;rounded=0;orthogonalLoop=1;jettySize=auto;html=1;entryX=0;entryY=0.5;entryDx=0;entryDy=0;fontFamily=Helvetica;fontSize=12;fontColor=default;" edge="1" parent="1" source="Vv4uia_VUNC-QQ6TIXsC-13" target="Vv4uia_VUNC-QQ6TIXsC-21">
          <mxGeometry relative="1" as="geometry" />
        </mxCell>
        <mxCell id="Vv4uia_VUNC-QQ6TIXsC-13" value="确定性" style="text;html=1;align=center;verticalAlign=middle;whiteSpace=wrap;rounded=0;fontFamily=Helvetica;fontSize=12;fontColor=default;" vertex="1" parent="1">
          <mxGeometry x="450" y="220" width="50" height="20" as="geometry" />
        </mxCell>
        <mxCell id="Vv4uia_VUNC-QQ6TIXsC-24" style="edgeStyle=orthogonalEdgeStyle;rounded=0;orthogonalLoop=1;jettySize=auto;html=1;entryX=0;entryY=0.5;entryDx=0;entryDy=0;fontFamily=Helvetica;fontSize=12;fontColor=default;" edge="1" parent="1" source="Vv4uia_VUNC-QQ6TIXsC-14" target="Vv4uia_VUNC-QQ6TIXsC-23">
          <mxGeometry relative="1" as="geometry" />
        </mxCell>
        <mxCell id="Vv4uia_VUNC-QQ6TIXsC-14" value="互异性" style="text;html=1;align=center;verticalAlign=middle;whiteSpace=wrap;rounded=0;fontFamily=Helvetica;fontSize=12;fontColor=default;" vertex="1" parent="1">
          <mxGeometry x="450" y="250" width="50" height="20" as="geometry" />
        </mxCell>
        <mxCell id="Vv4uia_VUNC-QQ6TIXsC-26" style="edgeStyle=orthogonalEdgeStyle;rounded=0;orthogonalLoop=1;jettySize=auto;html=1;entryX=0;entryY=0.5;entryDx=0;entryDy=0;fontFamily=Helvetica;fontSize=12;fontColor=default;" edge="1" parent="1" source="Vv4uia_VUNC-QQ6TIXsC-15" target="Vv4uia_VUNC-QQ6TIXsC-25">
          <mxGeometry relative="1" as="geometry" />
        </mxCell>
        <mxCell id="Vv4uia_VUNC-QQ6TIXsC-15" value="无序性" style="text;html=1;align=center;verticalAlign=middle;whiteSpace=wrap;rounded=0;fontFamily=Helvetica;fontSize=12;fontColor=default;" vertex="1" parent="1">
          <mxGeometry x="450" y="280" width="50" height="20" as="geometry" />
        </mxCell>
        <mxCell id="Vv4uia_VUNC-QQ6TIXsC-21" value="集合中的元素是确定的" style="text;html=1;align=center;verticalAlign=middle;whiteSpace=wrap;rounded=0;fontFamily=Helvetica;fontSize=12;fontColor=default;" vertex="1" parent="1">
          <mxGeometry x="540" y="222.5" width="130" height="15" as="geometry" />
        </mxCell>
        <mxCell id="Vv4uia_VUNC-QQ6TIXsC-23" value="集合中的元素互不相同" style="text;html=1;align=center;verticalAlign=middle;whiteSpace=wrap;rounded=0;fontFamily=Helvetica;fontSize=12;fontColor=default;" vertex="1" parent="1">
          <mxGeometry x="542.5" y="250" width="125" height="20" as="geometry" />
        </mxCell>
        <mxCell id="Vv4uia_VUNC-QQ6TIXsC-25" value="集合中的元素无顺序差别" style="text;html=1;align=center;verticalAlign=middle;whiteSpace=wrap;rounded=0;fontFamily=Helvetica;fontSize=12;fontColor=default;" vertex="1" parent="1">
          <mxGeometry x="542.5" y="280" width="140" height="20" as="geometry" />
        </mxCell>
        <mxCell id="Vv4uia_VUNC-QQ6TIXsC-32" style="edgeStyle=orthogonalEdgeStyle;rounded=0;orthogonalLoop=1;jettySize=auto;html=1;entryX=0;entryY=0.5;entryDx=0;entryDy=0;fontFamily=Helvetica;fontSize=12;fontColor=default;" edge="1" parent="1" source="Vv4uia_VUNC-QQ6TIXsC-27" target="Vv4uia_VUNC-QQ6TIXsC-29">
          <mxGeometry relative="1" as="geometry" />
        </mxCell>
        <mxCell id="Vv4uia_VUNC-QQ6TIXsC-33" style="edgeStyle=orthogonalEdgeStyle;rounded=0;orthogonalLoop=1;jettySize=auto;html=1;entryX=0;entryY=0.5;entryDx=0;entryDy=0;fontFamily=Helvetica;fontSize=12;fontColor=default;" edge="1" parent="1" source="Vv4uia_VUNC-QQ6TIXsC-27" target="Vv4uia_VUNC-QQ6TIXsC-30">
          <mxGeometry relative="1" as="geometry" />
        </mxCell>
        <mxCell id="Vv4uia_VUNC-QQ6TIXsC-34" style="edgeStyle=orthogonalEdgeStyle;rounded=0;orthogonalLoop=1;jettySize=auto;html=1;entryX=0;entryY=0.5;entryDx=0;entryDy=0;fontFamily=Helvetica;fontSize=12;fontColor=default;" edge="1" parent="1" source="Vv4uia_VUNC-QQ6TIXsC-27" target="Vv4uia_VUNC-QQ6TIXsC-31">
          <mxGeometry relative="1" as="geometry" />
        </mxCell>
        <mxCell id="Vv4uia_VUNC-QQ6TIXsC-27" value="表示方式" style="text;html=1;align=center;verticalAlign=middle;whiteSpace=wrap;rounded=0;fontFamily=Helvetica;fontSize=12;fontColor=default;" vertex="1" parent="1">
          <mxGeometry x="360" y="350" width="60" height="20" as="geometry" />
        </mxCell>
        <mxCell id="Vv4uia_VUNC-QQ6TIXsC-29" value="描述法" style="text;html=1;align=center;verticalAlign=middle;whiteSpace=wrap;rounded=0;fontFamily=Helvetica;fontSize=12;fontColor=default;" vertex="1" parent="1">
          <mxGeometry x="470" y="320" width="50" height="20" as="geometry" />
        </mxCell>
        <mxCell id="Vv4uia_VUNC-QQ6TIXsC-30" value="列举法" style="text;html=1;align=center;verticalAlign=middle;whiteSpace=wrap;rounded=0;fontFamily=Helvetica;fontSize=12;fontColor=default;" vertex="1" parent="1">
          <mxGeometry x="470" y="350" width="50" height="20" as="geometry" />
        </mxCell>
        <mxCell id="Vv4uia_VUNC-QQ6TIXsC-31" value="图示法" style="text;html=1;align=center;verticalAlign=middle;whiteSpace=wrap;rounded=0;fontFamily=Helvetica;fontSize=12;fontColor=default;" vertex="1" parent="1">
          <mxGeometry x="470" y="380" width="50" height="20" as="geometry" />
        </mxCell>
      </root>
    </mxGraphModel>
  </diagram>
</mxfile>
